<svg xmlns="http://www.w3.org/2000/svg" fill="currentColor" viewBox="0 0 24 25" class="css-vokv9 e11tmi8d0"><path d="M5.21324 12.699C5.21324 11.919 5.34415 11.1718 5.57324 10.4736L1.53691 7.38635C0.746013 8.98452 0.304199 10.7845 0.304199 12.699C0.304199 14.6136 0.746013 16.4135 1.53691 18.0172L5.57324 14.9299C5.34415 14.2263 5.21324 13.479 5.21324 12.699Z" fill="#FBBC05"></path><path d="M1.53699 7.38097L5.57331 10.4682C6.50603 7.64278 9.15691 5.60826 12.3041 5.60826C13.995 5.60826 15.5223 6.20825 16.7223 7.19006L20.2132 3.69919C18.0859 1.84466 15.3587 0.699219 12.3041 0.699219C7.5642 0.699219 3.48424 3.41555 1.53699 7.38097Z" fill="#EA4335"></path><path d="M12.3042 10.5176V15.1539H18.7405C18.1405 18.0993 15.6315 19.7902 12.3042 19.7902C9.15154 19.7902 6.4952 17.7502 5.56794 14.9194L1.53162 18.012C3.48432 21.9829 7.55883 24.6992 12.3042 24.6992C18.3042 24.6992 23.7587 20.3357 23.7587 12.6994C23.7587 11.9903 23.6496 11.2267 23.4859 10.5176H12.3042Z" fill="#34A853"></path><path d="M12.3041 10.5176V15.1539H18.7404C18.4186 16.7357 17.5404 17.952 16.2913 18.7429L20.1258 21.7102C22.324 19.6593 23.7585 16.6102 23.7585 12.6994C23.7585 11.9903 23.6494 11.2267 23.4858 10.5176H12.3041Z" fill="#4285F4"></path></svg>